<?xml version="1.0" encoding="UTF-8" standalone="no"?>
<!-- Created with Inkscape (http://www.inkscape.org/) -->

<svg
   xmlns:dc="http://purl.org/dc/elements/1.1/"
   xmlns:cc="http://creativecommons.org/ns#"
   xmlns:rdf="http://www.w3.org/1999/02/22-rdf-syntax-ns#"
   xmlns:svg="http://www.w3.org/2000/svg"
   xmlns="http://www.w3.org/2000/svg"
   xmlns:sodipodi="http://sodipodi.sourceforge.net/DTD/sodipodi-0.dtd"
   xmlns:inkscape="http://www.inkscape.org/namespaces/inkscape"
   sodipodi:docname="SIT302-Logo-Invert.svg"
   inkscape:version="0.48.5 r10040"
   version="1.1"
   id="svg2985"
   height="600px"
   width="800px">
  <defs
     id="defs2987">
    <inkscape:perspective
       sodipodi:type="inkscape:persp3d"
       inkscape:vp_x="0 : 300 : 1"
       inkscape:vp_y="0 : 1000 : 0"
       inkscape:vp_z="800 : 300 : 1"
       inkscape:persp3d-origin="400 : 200 : 1"
       id="perspective3043" />
  </defs>
  <sodipodi:namedview
     id="base"
     pagecolor="#2b167b"
     bordercolor="#666666"
     borderopacity="1.0"
     inkscape:pageopacity="1"
     inkscape:pageshadow="2"
     inkscape:zoom="0.70710678"
     inkscape:cx="420.34223"
     inkscape:cy="459.77122"
     inkscape:current-layer="layer1"
     inkscape:document-units="px"
     showgrid="false"
     inkscape:window-width="1280"
     inkscape:window-height="1002"
     inkscape:window-x="1358"
     inkscape:window-y="-8"
     inkscape:window-maximized="1" />
  <metadata
     id="metadata2990">
    <rdf:RDF>
      <cc:Work
         rdf:about="">
        <dc:format>image/svg+xml</dc:format>
        <dc:type
           rdf:resource="http://purl.org/dc/dcmitype/StillImage" />
        <dc:title></dc:title>
      </cc:Work>
    </rdf:RDF>
  </metadata>
  <g
     id="layer1"
     inkscape:label="Layer 1"
     inkscape:groupmode="layer">
    <path
       sodipodi:type="arc"
       style="fill:#08ca74;fill-opacity:1;stroke:none"
       id="path3959"
       sodipodi:cx="118.5877"
       sodipodi:cy="344.55768"
       sodipodi:rx="70.563362"
       sodipodi:ry="34.766083"
       d="m 189.15106,344.55768 a 70.563362,34.766083 0 1 1 -141.126722,0 70.563362,34.766083 0 1 1 141.126722,0 z"
       transform="translate(36,0)" />
    <path
       transform="matrix(0.85085886,0,0,0.77495921,53.223605,77.342498)"
       sodipodi:type="arc"
       style="fill:#2b167b;fill-opacity:1;stroke:none"
       id="path3959-6"
       sodipodi:cx="118.5877"
       sodipodi:cy="344.55768"
       sodipodi:rx="70.563362"
       sodipodi:ry="34.766083"
       d="m 189.15106,344.55768 a 70.563362,34.766083 0 1 1 -141.126722,0 70.563362,34.766083 0 1 1 141.126722,0 z" />
    <g
       transform="translate(101.66667,-5)"
       style="font-size:40px;font-style:normal;font-weight:normal;line-height:125%;letter-spacing:0px;word-spacing:0px;fill:#ffffff;fill-opacity:1;stroke:none;font-family:Sans"
       id="flowRoot2993">
      <path
         d="m 186.45459,205.74578 c -4.03133,-2.20888 -8.61482,-3.84145 -13.75049,-4.89771 -5.1358,-1.05604 -10.72857,-1.58412 -16.77832,-1.58423 -5.08891,1.1e-4 -9.81669,0.40807 -14.18335,1.22388 -4.36673,0.81602 -8.18264,2.08824 -11.44775,3.81665 -3.26516,1.72862 -5.83376,3.98447 -7.70581,6.76758 -1.87209,2.7833 -2.80812,6.19198 -2.80811,10.22607 -1e-5,4.79891 1.36815,8.56649 4.10449,11.30274 2.73631,2.7364 6.79246,4.96882 12.16846,6.69726 2.68942,0.95808 5.52169,1.72492 8.49683,2.30054 2.97505,0.57575 6.04683,1.12799 9.21533,1.65674 3.16841,0.52887 6.43281,1.08112 9.79321,1.65674 3.36029,0.57574 6.8642,1.34405 10.51172,2.30493 4.03118,1.05475 7.53508,2.25445 10.51172,3.59912 2.97648,1.34478 5.47257,3.04913 7.48828,5.11304 2.01554,2.06401 3.52726,4.58354 4.53516,7.55859 1.00772,2.97514 1.51162,6.52665 1.51172,10.65454 -1e-4,5.56937 -0.88779,10.53811 -2.66309,14.90625 -1.77548,4.36818 -4.51107,8.06398 -8.20679,11.0874 -3.69588,3.02345 -8.42365,5.32764 -14.18335,6.9126 -5.75982,1.58496 -12.67241,2.37744 -20.73779,2.37744 -8.73637,0 -15.76834,-0.88843 -21.09595,-2.66528 -5.32765,-1.77685 -9.45558,-4.20117 -12.38379,-7.27295 -2.92823,-3.07177 -4.89624,-6.67162 -5.90405,-10.79956 -1.00782,-4.12791 -1.51172,-8.49607 -1.51172,-13.10449 l 0,-1.72705 7.91895,0 0,1.72705 c -2e-5,3.64749 0.40794,7.07961 1.22387,10.29638 0.81591,3.21682 2.4243,6.02492 4.8252,8.42432 2.40086,2.39943 5.78464,4.29493 10.15137,5.68652 4.36666,1.39161 10.15059,2.08741 17.3518,2.08741 6.72065,0 12.43281,-0.64746 17.13648,-1.94239 4.70354,-1.29491 8.54363,-3.14281 11.52026,-5.5437 2.97649,-2.40086 5.1364,-5.32908 6.47974,-8.78467 1.34318,-3.45554 2.01481,-7.39084 2.01489,-11.8059 -8e-5,-2.97653 -0.33626,-5.54513 -1.00854,-7.70581 -0.67245,-2.16061 -1.75204,-4.0085 -3.23877,-5.54371 -1.4869,-1.5351 -3.43074,-2.83076 -5.83155,-3.88696 -2.40095,-1.0561 -5.32843,-2.0163 -8.78247,-2.88061 -3.36041,-0.86421 -6.72076,-1.58418 -10.08105,-2.15992 -3.3604,-0.57562 -6.69658,-1.15204 -10.00855,-1.72924 -3.31205,-0.57709 -6.52811,-1.17695 -9.64819,-1.79956 -3.12015,-0.6225 -6.07181,-1.41425 -8.85498,-2.37525 -7.20119,-2.39935 -12.48195,-5.59124 -15.84229,-9.57568 -3.36035,-3.9843 -5.04053,-8.99992 -5.04052,-15.04688 -1e-5,-5.37881 1.17626,-9.9396 3.52881,-13.68237 2.35252,-3.74257 5.52098,-6.76601 9.50537,-9.07031 3.98435,-2.30409 8.66452,-3.98426 14.04052,-5.04053 5.37594,-1.05604 11.08736,-1.58411 17.13428,-1.58423 8.54584,1.2e-4 15.86639,0.88781 21.96167,2.66309 6.09514,1.7755 11.59049,4.15147 16.48609,7.12793 l 0,21.74414 -7.91895,0 z"
         style="font-size:144px;font-variant:normal;font-weight:300;font-stretch:normal;text-align:center;text-anchor:middle;fill:#ffffff;font-family:NK57 Monospace Lt;-inkscape-font-specification:NK57 Monospace Lt Light"
         id="path4000" />
      <path
         style="font-size:144px;font-variant:normal;font-weight:300;font-stretch:normal;text-align:center;text-anchor:middle;fill:#ffffff;font-family:NK57 Monospace Lt;-inkscape-font-specification:NK57 Monospace Lt Light"
         d="m 258.70508,235.11882 0,65.23243 31.39013,0 0,6.91259 -68.83154,0 0,-6.91259 29.52246,0 0,-58.17481 -26.78467,0 0,-7.05762 z"
         id="path4014" />
      <path
         style="font-size:144px;font-variant:normal;font-weight:300;font-stretch:normal;text-align:center;text-anchor:middle;fill:#08ca74;font-family:NK57 Monospace Lt;-inkscape-font-specification:NK57 Monospace Lt Light;fill-opacity:0.94117647"
         d="m 245.60059,212.36834 c -5e-5,-6.4335 2.92817,-9.65029 8.78466,-9.65039 5.85639,1e-4 8.78461,3.21689 8.78467,9.65039 -6e-5,6.62411 -2.92828,9.93612 -8.78467,9.93603 -5.85649,9e-5 -8.78471,-3.31192 -8.78466,-9.93603 z"
         id="path4002" />
      <path
         d="m 393.74023,194.0783 0,7.34765 -39.31347,0 0,105.83789 -8.06397,0 0,-105.83789 -39.45849,0 0,-7.34765 z"
         style="font-size:144px;font-variant:normal;font-weight:300;font-stretch:normal;text-align:center;text-anchor:middle;fill:#ffffff;font-family:NK57 Monospace Lt;-inkscape-font-specification:NK57 Monospace Lt Light"
         id="path4004" />
      <path
         d="m 408.10156,201.7116 c 5.75975,-3.64735 11.75975,-6.19105 18,-7.63111 6.2402,-1.43982 12.9111,-2.15979 20.0127,-2.15991 28.0341,1.2e-4 42.05118,10.22325 42.05127,30.66944 -9e-5,3.74422 -0.45639,6.98445 -1.3689,9.7207 -0.91268,2.7364 -2.1849,5.08894 -3.81665,7.05762 -1.63192,1.96881 -3.55159,3.62482 -5.75903,4.96801 -2.2076,1.34333 -4.65608,2.44709 -7.34546,3.31128 2.87981,0.76764 5.54362,1.79962 7.99145,3.09595 2.44768,1.29644 4.58342,3.02422 6.40723,5.18335 1.82364,2.15923 3.24015,4.77544 4.24951,7.84863 1.00919,3.07329 1.51383,6.76908 1.51392,11.0874 -9e-5,6.91116 -1.17636,12.59915 -3.52881,17.06397 -2.35262,4.46485 -5.49691,7.99293 -9.43286,10.58423 -3.93611,2.59131 -8.52034,4.3916 -13.75269,5.40088 -5.23248,1.00927 -10.72857,1.51391 -16.48828,1.51391 -6.33402,0 -11.9495,-0.57641 -16.84643,-1.72925 -4.897,-1.15283 -9.02566,-3.00146 -12.38599,-5.54589 -3.36037,-2.54443 -5.92824,-5.90405 -7.70361,-10.07886 -1.7754,-4.17479 -2.6631,-9.28709 -2.66309,-15.33691 l 0,-2.87842 7.77393,0 0,2.7334 c -2e-5,4.7051 0.624,8.68947 1.87207,11.95312 1.24802,3.26369 3.1926,5.90407 5.83374,7.92114 2.64108,2.0171 6.00143,3.48121 10.08105,4.39234 4.07955,0.91114 8.95089,1.3667 14.61401,1.3667 4.99214,0 9.6247,-0.40796 13.89771,-1.22388 4.27288,-0.81591 7.94524,-2.25585 11.01709,-4.31982 3.0717,-2.06396 5.47111,-4.87206 7.19824,-8.42432 1.72697,-3.55222 2.59049,-8.11155 2.59058,-13.67798 -9e-5,-4.80172 -0.67172,-8.69014 -2.01489,-11.66528 -1.34335,-2.97505 -3.43075,-5.30269 -6.26221,-6.98291 -2.83162,-1.68013 -6.40803,-2.80805 -10.72925,-3.38379 -4.32135,-0.57563 -9.40875,-0.86347 -15.26221,-0.86353 l -15.41162,0 0,-7.05761 15.41162,0 c 5.85346,6e-5 10.84418,-0.36029 14.97217,-1.08106 4.12786,-0.72064 7.48821,-1.92034 10.08106,-3.59912 2.59269,-1.67864 4.46476,-3.88616 5.61621,-6.62256 1.15128,-2.73625 1.72697,-6.1215 1.72705,-10.15576 -8e-5,-8.54288 -2.68807,-14.68643 -8.06397,-18.43066 -5.37604,-3.74404 -13.919,-5.61611 -25.6289,-5.61622 -7.585,1.1e-4 -13.8494,0.59997 -18.79322,1.79956 -4.94387,1.19982 -8.95241,2.71227 -12.02563,4.53736 l 0,18 -7.62891,0 z"
         style="font-size:144px;font-variant:normal;font-weight:300;font-stretch:normal;text-align:center;text-anchor:middle;fill:#ffffff;font-family:NK57 Monospace Lt;-inkscape-font-specification:NK57 Monospace Lt Light"
         id="path4006" />
      <path
         d="m 544.42871,191.92058 c 5.37592,1.2e-4 10.15204,0.86364 14.32837,2.59058 4.1762,1.72716 7.77605,4.05479 10.79956,6.98291 3.02336,2.92832 5.54362,6.33701 7.56079,10.22607 2.01701,3.88925 3.62541,8.01718 4.8252,12.38379 1.19962,4.36678 2.06314,8.83015 2.59057,13.39014 0.52726,4.56012 0.79093,8.95245 0.79102,13.177 -9e-5,6.52739 -0.62411,13.24736 -1.87207,20.15991 -1.24813,6.91263 -3.38387,13.22463 -6.40723,18.93604 -3.02351,5.71144 -7.15144,10.41578 -12.38379,14.11303 -5.23248,3.69727 -11.78472,5.5459 -19.65674,5.5459 -5.56644,0 -10.43778,-0.93603 -14.61401,-2.8081 -4.1763,-1.87207 -7.80032,-4.36816 -10.87207,-7.48828 -3.0718,-3.12011 -5.6155,-6.72069 -7.6311,-10.80176 -2.01564,-4.08103 -3.62404,-8.35325 -4.8252,-12.81665 -1.20118,-4.46334 -2.04127,-8.95089 -2.52026,-13.46265 -0.47901,-4.51167 -0.71851,-8.73627 -0.71851,-12.67383 0,-3.9345 0.2395,-8.11004 0.71851,-12.52661 0.47899,-4.41643 1.31908,-8.76042 2.52026,-13.03198 1.20116,-4.2714 2.80956,-8.32755 4.8252,-12.16846 2.0156,-3.84072 4.53513,-7.22524 7.55859,-10.15356 3.02341,-2.92812 6.57492,-5.25575 10.65454,-6.98291 4.07955,-1.72694 8.85567,-2.59046 14.32837,-2.59058 z m 0,7.05322 c -6.52738,1.1e-4 -11.87919,1.58434 -16.05542,4.75269 -4.1763,3.16856 -7.4883,7.22471 -9.93603,12.16846 -2.44778,4.94393 -4.15139,10.41585 -5.11084,16.41577 -0.95949,6.00007 -1.43923,11.78473 -1.43921,17.354 -2e-5,5.47271 0.47972,11.30498 1.43921,17.49683 0.95945,6.19193 2.66306,11.87991 5.11084,17.06396 2.44773,5.1841 5.80807,9.50392 10.08105,12.95948 4.27291,3.45557 9.76827,5.18335 16.48608,5.18335 6.33686,0 11.56928,-1.56006 15.69727,-4.68018 4.12786,-3.1201 7.4157,-7.17625 9.86353,-12.16846 2.44767,-4.99216 4.17545,-10.53585 5.18335,-16.6311 1.00773,-6.09517 1.51163,-12.16767 1.51171,-18.21753 -8e-5,-5.85638 -0.47981,-11.85638 -1.43921,-18 -0.95955,-6.14347 -2.68733,-11.71134 -5.18334,-16.70361 -2.49617,-4.99209 -5.85652,-9.07241 -10.08106,-12.24097 -4.22467,-3.16835 -9.60064,-4.75258 -16.12793,-4.75269 z"
         style="font-size:144px;font-variant:normal;font-weight:300;font-stretch:normal;text-align:center;text-anchor:middle;fill:#ffffff;font-family:NK57 Monospace Lt;-inkscape-font-specification:NK57 Monospace Lt Light"
         id="path4008" />
      <path
         d="m 603.28906,201.85662 c 5.18261,-3.64735 10.9658,-6.21522 17.34961,-7.70362 6.38376,-1.48816 13.31979,-2.2323 20.80811,-2.23242 5.95307,1.2e-4 11.4975,0.52819 16.6333,1.58423 5.13567,1.05627 9.62322,2.87999 13.46264,5.47119 3.83928,2.59142 6.83928,6.04698 9,10.3667 2.16056,4.31992 3.24088,9.69662 3.24097,16.13013 -9e-5,6.81453 -1.34408,13.24592 -4.03198,19.29419 -2.68807,6.04839 -6.816,12.02495 -12.38379,17.92968 -5.56794,5.90483 -12.55231,11.88065 -20.95313,17.9275 -8.40092,6.04689 -18.26443,12.52735 -29.59057,19.4414 l 68.68652,0 0,7.19824 -81.50537,0 0,-6.76757 c 13.0576,-7.58495 24.14645,-14.6411 33.2666,-21.16846 9.12007,-6.52731 16.53583,-12.79098 22.24732,-18.79102 5.71135,-5.99994 9.86345,-11.87982 12.4563,-17.63965 2.59269,-5.75969 3.88907,-11.61613 3.88916,-17.56933 -9e-5,-5.08878 -0.88851,-9.31265 -2.66529,-12.67163 -1.77693,-3.35879 -4.20124,-6.04678 -7.27295,-8.06397 -3.07184,-2.01698 -6.67169,-3.43348 -10.79956,-4.24951 -4.12798,-0.81581 -8.59136,-1.22377 -13.39013,-1.22388 -6.81743,1.1e-4 -12.60209,0.50402 -17.35401,1.51172 -4.75198,1.00792 -9.24025,2.61632 -13.46484,4.8252 l 0,18 -7.62891,0 z"
         style="font-size:144px;font-variant:normal;font-weight:300;font-stretch:normal;text-align:center;text-anchor:middle;fill:#ffffff;font-family:NK57 Monospace Lt;-inkscape-font-specification:NK57 Monospace Lt Light"
         id="path4010" />
    </g>
    <text
       xml:space="preserve"
       style="font-size:40px;font-style:normal;font-weight:normal;line-height:125%;letter-spacing:0px;word-spacing:0px;fill:#08ca74;fill-opacity:0.94117647;stroke:none;font-family:Sans"
       x="403.33334"
       y="371.66669"
       id="text3001"
       sodipodi:linespacing="125%"><tspan
         sodipodi:role="line"
         id="tspan3003"
         x="403.33334"
         y="371.66669"
         style="font-size:64px;font-style:normal;font-variant:normal;font-weight:normal;font-stretch:normal;font-family:NK57 Monospace Bk;-inkscape-font-specification:NK57 Monospace Bk;fill:#08ca74;fill-opacity:0.94117647">Solutions</tspan></text>
    <path
       transform="matrix(0.4449433,0,0,0.4449433,100.96881,191.65129)"
       sodipodi:type="arc"
       style="fill:#a28dff;fill-opacity:1;stroke:none"
       id="path3959-8"
       sodipodi:cx="118.5877"
       sodipodi:cy="344.55768"
       sodipodi:rx="70.563362"
       sodipodi:ry="34.766083"
       d="m 189.15106,344.55768 a 70.563362,34.766083 0 1 1 -141.126722,0 70.563362,34.766083 0 1 1 141.126722,0 z" />
    <path
       style="fill:#ffffff;fill-opacity:1;stroke:none"
       d="m 118.5106,259.78414 35.20917,85.78492 1.73431,-0.0322 -27.65147,-89.19494 z"
       id="path3949"
       inkscape:connector-curvature="0"
       sodipodi:nodetypes="ccccc" />
    <path
       sodipodi:type="arc"
       style="fill:#08ca74;fill-opacity:1;stroke:none"
       id="path3955"
       sodipodi:cx="78.371002"
       sodipodi:cy="221.10861"
       sodipodi:rx="41.247894"
       sodipodi:ry="41.247894"
       d="m 119.6189,221.10861 a 41.247894,41.247894 0 1 1 -82.495792,0 41.247894,41.247894 0 1 1 82.495792,0 z"
       transform="matrix(0.66071427,0,0,0.66071427,68.070388,97.427313)" />
  </g>
</svg>
